# xmcd CD database file
#
# Track frame offsets:
#	150
#	7655
#	28930
#	43707
#	63485
#	77685
#	92700
#	106425
#	124837
#	143670
#	155127
#	171725
#
# Disc length: 2555 seconds
#
# Revision: 0
# Processed by: cddbd v1.5.1PL2 Copyright (c) Steve Scherf et al.
# Submitted via: CDex 1.51
#
DISCID=a009f90c
DTITLE=Micke From Sweden - This Ain't The End
DYEAR=2006
DGENRE=Blues
TTITLE0=Ashes Of An Instrument
TTITLE1=This Ain't The End
TTITLE2=Big Bad Wolf
TTITLE3=Nancy's Afterhour
TTITLE4=Where's My Piano
TTITLE5=Shoot Me In The Head
TTITLE6=Praise To The Lord
TTITLE7=It Might Be The Devil
TTITLE8=Up North
TTITLE9=Lovers Hearts
TTITLE10=Roses Will Bleed
TTITLE11=Nobody's Dancing Tango
EXTD=YEAR: 2006
EXTT0=
EXTT1=
EXTT2=
EXTT3=
EXTT4=
EXTT5=
EXTT6=
EXTT7=
EXTT8=
EXTT9=
EXTT10=
EXTT11=
PLAYORDER=
